<?xml version="1.0" encoding="iso-8859-1"?>
<!-- Generator: Adobe Illustrator 19.0.0, SVG Export Plug-In . SVG Version: 6.00 Build 0)  -->
<svg version="1.1" id="Layer_1" xmlns="http://www.w3.org/2000/svg" xmlns:xlink="http://www.w3.org/1999/xlink" x="0px" y="0px"
	 viewBox="0 0 512 512" style="enable-background:new 0 0 512 512;" xml:space="preserve">
<circle style="fill:#9EA7DB;" cx="256" cy="256" r="256"/>
<path style="fill:#8C95C9;" d="M511.681,268.786c-6.612,134.381-116.841,241.499-252.462,243.172l-119.2-119.2l224.651-270.983
	L511.681,268.786z"/>
<path style="fill:#F8F8F8;" d="M140.018,106.101h194.226c10.387,0,37.737,9.564,37.737,37.847v246.137
	c0,11.143-8.498,20.26-18.885,20.26H158.87l-18.852-17.588V106.101z"/>
<path style="fill:#FF8C8A;" d="M140.018,101.652h194.227c10.386,0,18.884,8.497,18.884,18.884v253.079
	c0,10.387-8.497,18.884-18.884,18.884H140.018V101.652z"/>
<polygon style="fill:#68606E;" points="140.018,101.653 169.713,101.653 169.713,392.499 140.018,392.499 "/>
<polygon style="fill:#FAD55C;" points="195.755,101.653 236.74,101.653 236.74,241.937 215.428,211.158 195.755,241.937 "/>
<g>
</g>
<g>
</g>
<g>
</g>
<g>
</g>
<g>
</g>
<g>
</g>
<g>
</g>
<g>
</g>
<g>
</g>
<g>
</g>
<g>
</g>
<g>
</g>
<g>
</g>
<g>
</g>
<g>
</g>
</svg>
