<?xml version="1.0" encoding="iso-8859-1"?>
<!-- Generator: Adobe Illustrator 19.0.0, SVG Export Plug-In . SVG Version: 6.00 Build 0)  -->
<svg version="1.1" id="Layer_1" xmlns="http://www.w3.org/2000/svg" xmlns:xlink="http://www.w3.org/1999/xlink" x="0px" y="0px"
	 viewBox="0 0 513.067 513.067" style="enable-background:new 0 0 513.067 513.067;" xml:space="preserve">
<path style="fill:#F2F2F2;" d="M347.2,334.933l-10.667-2.133c0,1.067-14.933,55.467-74.667,107.733
	c5.333-45.867,18.133-91.733,4.267-137.6c-3.2,0-7.467,0-10.667,0c13.867,45.867,0,92.8-4.267,138.667
	c-60.8-51.2-75.733-107.733-75.733-107.733L164.8,336c1.067,2.133,17.067,62.933,85.333,118.4c-1.067,19.2,0,39.467,5.333,58.667
	c3.2,0,7.467,0,10.667,0c-5.333-19.2-6.4-38.4-5.333-57.6C331.2,398.933,347.2,337.067,347.2,334.933z"/>
<path style="fill:#84DBFF;" d="M224.533,120.533c-22.4-75.733-81.067-93.867-140.8-75.733s-99.2,65.067-76.8,140.8
	c18.133,59.733,91.733,113.067,133.333,128l-7.467,13.867c-4.267,7.467,3.2,16,10.667,13.867l51.2-14.933
	c8.533-2.133,9.6-13.867,2.133-17.067l-13.867-7.467C210.667,266.667,241.6,181.333,224.533,120.533z"/>
<g style="opacity:0.1;">
	<path style="fill:#231F20;" d="M37.867,181.333c-2.133,0-4.267-1.067-5.333-4.267c-8.533-27.733-6.4-52.267,4.267-70.4
		c1.067-2.133,5.333-3.2,7.467-2.133c2.133,1.067,3.2,5.333,2.133,7.467c-9.6,16-10.667,36.267-3.2,61.867
		c0,3.2-1.067,6.4-4.267,7.467H37.867z"/>
</g>
<path style="fill:#FFD15C;" d="M288.533,120.533c22.4-75.733,81.067-93.867,140.8-75.733s99.2,65.067,76.8,140.8
	C488,245.333,414.4,298.667,372.8,313.6l7.467,13.867c4.267,7.467-3.2,16-10.667,13.867L318.4,326.4
	c-8.533-2.133-9.6-13.867-2.133-17.067l13.867-7.467C302.4,266.667,271.467,181.333,288.533,120.533z"/>
<path style="fill:#F2F2F2;" d="M306.667,433.067c-8.533,0-38.4,5.333-50.133,17.067c-11.733-11.733-41.6-17.067-50.133-17.067
	c-14.933,0-27.733,12.8-27.733,27.733c0,14.933,12.8,27.733,27.733,27.733c8.533,0,38.4-5.333,50.133-17.067
	c11.733,11.733,41.6,17.067,50.133,17.067c14.933,0,27.733-12.8,27.733-27.733C334.4,445.867,322.667,433.067,306.667,433.067z
	 M206.4,477.867c-9.6,0-17.067-7.467-17.067-17.067s7.467-17.067,17.067-17.067c13.867,0,44.8,10.667,44.8,17.067
	S220.267,477.867,206.4,477.867z M306.667,477.867c-13.867,0-44.8-10.667-44.8-17.067s30.933-17.067,44.8-17.067
	c9.6,0,17.067,7.467,17.067,17.067S316.267,477.867,306.667,477.867z"/>
<path style="opacity:0.1;fill:#231F20;enable-background:new    ;" d="M367.467,40.533c-35.2,6.4-64,32-78.933,80
	c-13.867,45.867,1.067,105.6,21.333,147.2C346.133,231.467,385.6,168.533,385.6,112C385.6,84.267,379.2,60.8,367.467,40.533z"/>
<path style="fill:#FF7058;" d="M369.6,113.067C369.6,34.133,319.467,0,256.533,0S143.467,34.133,143.467,113.067
	c0,62.933,56.533,134.4,91.733,161.067l-11.733,11.733c-6.4,6.4-2.133,16,6.4,16H283.2c8.533,0,12.8-10.667,6.4-16L278.933,275.2
	C315.2,248.533,369.6,176,369.6,113.067z"/>
<g style="opacity:0.1;">
	<path style="fill:#231F20;" d="M175.467,118.4c-3.2,0-5.333-2.133-5.333-5.333c0-55.467,30.933-86.4,86.4-86.4
		c3.2,0,5.333,2.133,5.333,5.333s-2.133,5.333-5.333,5.333c-50.133,0-75.733,25.6-75.733,75.733
		C180.8,116.267,178.667,118.4,175.467,118.4z"/>
</g>
<g>
</g>
<g>
</g>
<g>
</g>
<g>
</g>
<g>
</g>
<g>
</g>
<g>
</g>
<g>
</g>
<g>
</g>
<g>
</g>
<g>
</g>
<g>
</g>
<g>
</g>
<g>
</g>
<g>
</g>
</svg>
