<?xml version="1.0" encoding="iso-8859-1"?>
<!-- Generator: Adobe Illustrator 19.0.0, SVG Export Plug-In . SVG Version: 6.00 Build 0)  -->
<svg version="1.1" id="Layer_1" xmlns="http://www.w3.org/2000/svg" xmlns:xlink="http://www.w3.org/1999/xlink" x="0px" y="0px"
	 viewBox="0 0 512 512" style="enable-background:new 0 0 512 512;" xml:space="preserve">
<g>
	<path style="fill:#76B030;" d="M37.779,511.999c-2.775,0-5.489-1.374-7.089-3.888L1.313,461.947
		c-2.489-3.911-1.336-9.098,2.576-11.587c3.911-2.492,9.098-1.337,11.587,2.575l29.377,46.164c2.489,3.911,1.336,9.098-2.576,11.587
		C40.881,511.574,39.321,511.999,37.779,511.999z"/>
	<path style="fill:#76B030;" d="M474.22,511.999c-1.541,0-3.101-0.424-4.498-1.314c-3.911-2.489-5.064-7.676-2.576-11.587
		l29.377-46.164c2.489-3.91,7.677-5.063,11.587-2.575c3.91,2.489,5.064,7.676,2.576,11.587l-29.377,46.164
		C479.71,510.624,476.994,511.999,474.22,511.999z"/>
	<path style="fill:#76B030;" d="M278.722,115.769c-3.278-3.277-8.592-3.277-11.869,0l-10.852,10.852l-10.852-10.852
		c-3.278-3.277-8.592-3.277-11.869,0c-3.279,3.279-3.279,8.592,0,11.87l16.787,16.787c1.639,1.639,3.786,2.458,5.935,2.458
		c2.149,0,4.296-0.819,5.935-2.458l16.787-16.787C281.999,124.361,281.999,119.047,278.722,115.769z"/>
</g>
<path style="fill:#A4D64D;" d="M481.433,499.298L263.204,134.185c-1.515-2.535-4.251-4.088-7.205-4.088s-5.69,1.552-7.205,4.088
	L30.566,499.298c-1.551,2.594-1.587,5.82-0.097,8.448c1.491,2.628,4.28,4.252,7.3,4.252h436.457c3.022,0,5.809-1.624,7.3-4.252
	C483.02,505.118,482.982,501.892,481.433,499.298z"/>
<path style="fill:#8EC42F;" d="M51.454,507.746c-1.491-2.628-1.454-5.854,0.097-8.448l214.942-359.613l-3.287-5.5
	c-1.515-2.535-4.251-4.088-7.205-4.088s-5.69,1.552-7.205,4.088L30.567,499.298c-1.551,2.594-1.587,5.82-0.097,8.448
	c1.491,2.628,4.28,4.252,7.3,4.252h20.984C55.733,511.998,52.945,510.374,51.454,507.746z"/>
<path style="fill:#FFB266;" d="M481.433,499.298L263.204,134.185c-1.937-3.24-5.799-4.784-9.438-3.784
	c-3.64,1.005-6.16,4.315-6.16,8.091v365.113c0,4.635,3.758,8.393,8.393,8.393h218.229c3.022,0,5.809-1.624,7.3-4.252
	C483.02,505.118,482.982,501.892,481.433,499.298z"/>
<path style="fill:#A4D64D;" d="M481.433,499.298L263.204,134.185c-2.028-3.393-6.152-4.91-9.897-3.644
	c-3.746,1.268-6.098,4.979-5.646,8.908l41.967,365.113c0.487,4.238,4.074,7.436,8.339,7.436h176.262c3.022,0,5.809-1.624,7.3-4.252
	C483.02,505.118,482.982,501.892,481.433,499.298z"/>
<path style="fill:#76B030;" d="M360.917,365.114H293.77c-4.635,0-8.393,3.758-8.393,8.393v67.147c0,4.635,3.758,8.393,8.393,8.393
	h67.147c4.635,0,8.393-3.758,8.393-8.393v-67.147C369.311,368.872,365.553,365.114,360.917,365.114z"/>
<rect x="302.162" y="381.899" style="fill:#FFDC73;" width="50.36" height="50.36"/>
<path style="fill:#D2EB8D;" d="M254.449,130.242c-4.328,0.813-7.29,4.833-6.787,9.207l41.967,365.113
	c0.376,3.271,2.63,6.021,5.765,7.031c0.846,0.273,1.713,0.405,2.573,0.405c2.326,0,4.594-0.968,6.211-2.747l41.967-46.164
	c1.913-2.105,2.63-5.033,1.906-7.783L254.449,130.242z"/>
<path style="fill:#76B030;" d="M218.229,365.114h-67.147c-4.635,0-8.393,3.758-8.393,8.393v67.147c0,4.635,3.758,8.393,8.393,8.393
	h67.147c4.635,0,8.393-3.758,8.393-8.393v-67.147C226.623,368.872,222.866,365.114,218.229,365.114z"/>
<rect x="159.474" y="381.899" style="fill:#FFDC73;" width="50.36" height="50.36"/>
<path style="fill:#FFD042;" d="M168.756,117.242c-23.497-2.499-41.218-22.23-41.218-45.897s17.72-43.398,41.218-45.897
	c3.484-0.371,6.486-3.02,7.283-6.431c0.819-3.507-0.802-7.312-3.906-9.144c-10.946-6.457-23.464-9.871-36.201-9.871
	c-39.339,0-71.344,32.005-71.344,71.344s32.005,71.344,71.344,71.344c12.737,0,25.255-3.414,36.201-9.871
	c3.103-1.832,4.724-5.636,3.906-9.144C175.242,120.26,172.242,117.612,168.756,117.242z"/>
<path style="fill:#FFC412;" d="M85.579,71.344c0-35.763,26.454-65.459,60.821-70.562C142.946,0.27,139.449,0,135.933,0
	C96.594,0,64.589,32.006,64.589,71.344s32.005,71.344,71.344,71.344c3.516,0,7.013-0.27,10.467-0.782
	C112.033,136.802,85.579,107.108,85.579,71.344z"/>
<g>
	<path style="fill:#FFD042;" d="M380.747,28.547h-23.918L349.438,5.8c-1.111-3.419-4.388-5.8-7.982-5.8
		c-3.596,0-6.872,2.381-7.982,5.8l-7.391,22.747h-23.918c-3.636,0-6.859,2.341-7.982,5.8c-1.124,3.458,0.107,7.246,3.049,9.383
		l19.35,14.059l-7.39,22.748c-1.105,3.399,0.157,7.293,3.057,9.384c2.891,2.084,6.971,2.096,9.858-0.001l19.35-14.058l19.35,14.058
		c2.931,2.132,7.096,2.087,9.988-0.092c2.808-2.115,4.014-5.948,2.928-9.292l-7.39-22.748l19.35-14.059
		c2.942-2.137,4.173-5.925,3.049-9.383C387.606,30.888,384.383,28.547,380.747,28.547z"/>
	<path style="fill:#FFD042;" d="M511.588,189.625c-1.124-3.459-4.347-5.8-7.982-5.8h-23.918l-7.391-22.747
		c-1.124-3.459-4.347-5.8-7.982-5.8c-3.635,0-6.86,2.341-7.982,5.8l-7.39,22.747h-23.918c-3.636,0-6.859,2.341-7.982,5.8
		c-1.124,3.458,0.107,7.246,3.049,9.383l19.35,14.059l-7.39,22.748c-1.076,3.312,0.061,7.046,2.801,9.196
		c2.918,2.288,7.114,2.367,10.115,0.187l19.35-14.058l19.35,14.058c3.137,2.281,7.556,2.072,10.47-0.484
		c2.494-2.188,3.472-5.744,2.447-8.9l-7.39-22.748l19.35-14.059C511.481,196.871,512.712,193.083,511.588,189.625z"/>
	<path style="fill:#FFD042;" d="M86.977,250.973H63.059l-7.39-22.747c-1.124-3.459-4.347-5.8-7.982-5.8
		c-3.635,0-6.86,2.341-7.982,5.8l-7.391,22.747H8.394c-3.636,0-6.86,2.341-7.982,5.8c-1.124,3.458,0.107,7.246,3.049,9.383
		l19.35,14.059l-7.39,22.748c-1.026,3.156-0.048,6.713,2.447,8.9c2.915,2.556,7.332,2.764,10.47,0.484l19.35-14.058l19.35,14.058
		c2.941,2.139,6.925,2.137,9.866,0c2.942-2.137,4.174-5.925,3.049-9.383l-7.39-22.748l19.35-14.059
		c2.942-2.137,4.173-5.925,3.049-9.383C93.837,253.313,90.614,250.973,86.977,250.973z"/>
</g>
<g>
</g>
<g>
</g>
<g>
</g>
<g>
</g>
<g>
</g>
<g>
</g>
<g>
</g>
<g>
</g>
<g>
</g>
<g>
</g>
<g>
</g>
<g>
</g>
<g>
</g>
<g>
</g>
<g>
</g>
</svg>
