<?xml version="1.0" encoding="iso-8859-1"?>
<!-- Generator: Adobe Illustrator 19.0.0, SVG Export Plug-In . SVG Version: 6.00 Build 0)  -->
<svg version="1.1" id="Layer_1" xmlns="http://www.w3.org/2000/svg" xmlns:xlink="http://www.w3.org/1999/xlink" x="0px" y="0px"
	 viewBox="0 0 512.012 512.012" style="enable-background:new 0 0 512.012 512.012;" xml:space="preserve">
<circle style="fill:#5ed1b3" cx="256.006" cy="256.006" r="256.006"/>
<path style="fill:#4bc2a2;" d="M510.121,287.135c-12.06,99.416-81.096,181.262-173.48,211.895l-80.635-80.624l179.533-205.865
	L510.121,287.135z"/>
<polygon style="fill:#D9D9DD;" points="327.648,212.541 381.674,136.702 435.527,212.541 "/>
<polygon style="fill:#EAEAED;" points="381.674,136.702 327.648,212.541 256.006,136.702 "/>
<polygon style="fill:#F8F8F8;" points="256.006,136.702 327.648,212.541 184.375,212.541 "/>
<polygon style="fill:#EAEAED;" points="256.006,136.702 184.375,212.541 130.338,136.702 "/>
<polygon style="fill:#F8F8F8;" points="130.338,136.702 184.375,212.541 76.485,212.541 "/>
<polygon style="fill:#D9D9DD;" points="76.485,212.541 184.375,212.541 256.006,418.406 "/>
<polygon style="fill:#EAEAED;" points="256.006,418.406 184.375,212.541 327.648,212.541 "/>
<polygon style="fill:#F8F8F8;" points="256.006,418.406 327.648,212.541 435.527,212.541 "/>
<g>
</g>
<g>
</g>
<g>
</g>
<g>
</g>
<g>
</g>
<g>
</g>
<g>
</g>
<g>
</g>
<g>
</g>
<g>
</g>
<g>
</g>
<g>
</g>
<g>
</g>
<g>
</g>
<g>
</g>
</svg>
