<?xml version="1.0" encoding="iso-8859-1"?>
<!-- Generator: Adobe Illustrator 19.0.0, SVG Export Plug-In . SVG Version: 6.00 Build 0)  -->
<svg version="1.1" id="Layer_1" xmlns="http://www.w3.org/2000/svg" xmlns:xlink="http://www.w3.org/1999/xlink" x="0px" y="0px"
	 viewBox="0 0 511.982 511.982" style="enable-background:new 0 0 511.982 511.982;" xml:space="preserve">
<circle style="fill:#5ED1B3;" cx="255.991" cy="255.991" r="255.991"/>
<path style="fill:#4BC2A2;" d="M507.107,305.898L256.258,55.031l-41.171,215.105l-30.478,76.523l57.006,57.023l3.327,31.029
	l70.367,70.367C412.151,482.092,487.714,404.092,507.107,305.898z"/>
<path style="fill:#FF8C8A;" d="M190.766,293.924l38.52-37.683l8.433,58.607l-53.109,31.812L190.766,293.924z M321.234,293.924
	l-38.537-37.683l-8.416,58.607l53.109,31.812L321.234,293.924z"/>
<g>
	<path style="fill:#FA7876;" d="M209.874,275.242l19.411-19.002l8.433,58.607l-6.37,3.807
		C223.716,303.496,216.422,289.066,209.874,275.242z M280.651,318.654c7.615-15.159,14.91-29.588,21.475-43.412l-19.429-19.002
		l-8.416,58.607L280.651,318.654z"/>
	<path style="fill:#FA7876;" d="M236.847,308.762l0.872,6.085l-53.109,31.812l0.818-7.099L236.847,308.762z M275.153,308.762
		l-0.872,6.085l53.109,31.812l-0.836-7.099L275.153,308.762z"/>
</g>
<path style="fill:#F8F8F8;" d="M254.034,55.636c-95.241,90.027-62.717,159.398-17.365,266.435h7.882l1.441,5.587h9.999h9.999
	l1.441-5.587h7.9c45.334-107.037,77.858-176.408-17.383-266.435c0-0.409-1.05-0.641-1.957-0.605
	C255.084,54.995,254.034,55.226,254.034,55.636z"/>
<path style="fill:#EAEAED;" d="M254.034,55.636c-1.228,1.174-2.438,2.349-3.63,3.505c94.013,88.996,63.144,157.851,18.575,262.93
	h6.352c45.334-107.037,77.858-176.408-17.383-266.435c0-0.409-1.05-0.641-1.957-0.605C255.084,54.995,254.034,55.226,254.034,55.636
	z M259.105,327.657h6.885l0.605-2.295h-6.903L259.105,327.657z"/>
<path style="fill:#FADC78;" d="M242.594,333.884c0,0-15.372,13.362-9.714,44.622c5.658,31.261,12.063,56.205,12.063,56.205
	l1.388-19.767l9.661,35.709l9.679-35.709l1.37,19.767c0,0,6.405-24.944,12.063-56.205c5.676-31.261-9.697-44.622-9.697-44.622
	h-13.415H242.594z"/>
<path style="fill:#E3C04D;" d="M242.594,333.884c0,0-4.484,3.896-7.722,12.401c0.196,0,0.391-0.018,0.587-0.053
	c13.611-3.434,27.293-3.63,41.064,0c0.214,0.036,0.409,0.071,0.587,0.071c-3.22-8.522-7.704-12.419-7.704-12.419h-13.415H242.594z"
	/>
<path style="fill:#FAD55C;" d="M254.034,55.636c-17.116,16.191-30.086,31.705-39.623,46.9c11.369,5,25.692,7.989,41.26,7.989
	c15.817,0,30.335-3.078,41.776-8.202c-9.359-14.874-22.026-30.051-38.644-45.868l-0.676-0.587v-0.053l-0.178-0.178
	c0-0.071-0.036-0.142-0.107-0.214c-0.32-0.231-0.925-0.356-1.583-0.391l0,0h-0.125l0,0h-0.018h-0.036h-0.036h-0.018h-0.036h-0.036
	h-0.053l0,0h-0.036h-0.178h-0.018h-0.018h-0.089h-0.125l0,0C254.71,55.084,254.034,55.297,254.034,55.636z"/>
<path style="fill:#E3C04D;" d="M257.895,55.493c-0.338-0.231-0.996-0.427-1.637-0.463l0,0h-0.125l0,0h-0.018h-0.036
	c-0.267,0-0.534,0-0.818,0.018l0,0c-0.267,0.036-1.139,0.16-1.21,0.552l0,0v0.018l0,0h-0.018v0.018l-0.053,0.053
	c-0.249,0.249-0.498,0.48-0.729,0.712h-0.018c-0.961,0.925-1.904,1.833-2.829,2.74c16.849,15.942,29.659,31.243,39.125,46.224
	c2.776-0.907,5.427-1.922,7.917-3.042c-0.712-1.139-1.441-2.277-2.188-3.398l-0.071-0.107l-0.463-0.694l0,0
	c-0.712-1.068-1.441-2.117-2.171-3.185l-0.658-0.925c-0.676-0.943-1.352-1.904-2.064-2.847l-0.872-1.192
	c-0.694-0.925-1.406-1.868-2.117-2.793l-1.014-1.299c-0.712-0.907-1.423-1.797-2.153-2.704c-0.409-0.498-0.801-0.996-1.228-1.495
	c-0.658-0.801-1.317-1.601-1.993-2.402c-0.498-0.587-1.014-1.192-1.53-1.779c-0.623-0.747-1.263-1.477-1.922-2.206
	c-0.587-0.676-1.192-1.352-1.797-2.028c-0.587-0.658-1.192-1.317-1.815-1.993c-0.641-0.694-1.299-1.406-1.957-2.117
	c-0.623-0.658-1.263-1.334-1.904-1.993c-0.658-0.694-1.334-1.406-2.028-2.099c-0.623-0.641-1.245-1.281-1.886-1.939
	c-0.783-0.783-1.566-1.566-2.366-2.349c-0.623-0.623-1.245-1.228-1.886-1.85c-0.818-0.801-1.672-1.619-2.526-2.42l-0.036-0.053
	l-0.676-0.587v-0.053l-0.178-0.178v-0.018l0,0l0,0V55.6l0,0v-0.018l0,0l-0.018-0.018l0,0l0,0v-0.018l0,0l-0.018-0.036l0,0v-0.018
	H257.895L257.895,55.493z"/>
<path style="fill:#FA7876;" d="M233.68,314.847h44.622v15.088c0,2.171-1.548,3.95-3.452,3.95h-37.701
	c-1.904,0-3.469-1.779-3.469-3.95V314.847z"/>
<polygon style="fill:#FF8C8A;" points="246.17,269.566 265.83,269.566 261.169,359.434 250.814,359.434 "/>
<circle style="fill:#817C85;" cx="255.991" cy="164.843" r="28.823"/>
<circle style="fill:#9EA7DB;" cx="255.991" cy="164.843" r="21.564"/>
<circle style="fill:#B1B8E2;" cx="251.276" cy="160.608" r="13.255"/>
<g>
</g>
<g>
</g>
<g>
</g>
<g>
</g>
<g>
</g>
<g>
</g>
<g>
</g>
<g>
</g>
<g>
</g>
<g>
</g>
<g>
</g>
<g>
</g>
<g>
</g>
<g>
</g>
<g>
</g>
</svg>
