<?xml version="1.0" encoding="iso-8859-1"?>
<!-- Generator: Adobe Illustrator 19.0.0, SVG Export Plug-In . SVG Version: 6.00 Build 0)  -->
<svg version="1.1" id="Layer_1" xmlns="http://www.w3.org/2000/svg" xmlns:xlink="http://www.w3.org/1999/xlink" x="0px" y="0px"
	 viewBox="0 0 512 512" style="enable-background:new 0 0 512 512;" xml:space="preserve">
<circle style="fill:#fad55c;" cx="256" cy="256" r="256"/>
<path style="fill:#e3c04d;" d="M507.256,305.171C484.326,423.034,380.559,512,256,512c-1.001,0-2.001-0.037-2.99-0.037L154,412.953
	l32.937-100.702l-95.971-93.302l126.252,0.235L256,99.047l119.976,119.988l45.057-0.086L507.256,305.171z"/>
<polygon style="fill:#F8F8F8;" points="256,99.047 294.781,219.183 421.033,218.949 318.749,292.953 357.987,412.953 256,338.541 
	154,412.953 193.251,292.953 90.967,218.949 217.219,219.183 "/>
<g>
	<polygon style="fill:#D9D9DD;" points="193.251,292.953 90.967,218.949 107.769,218.973 196.451,283.155 	"/>
	<polygon style="fill:#D9D9DD;" points="352.786,397.028 357.987,412.953 256,338.541 154,412.953 159.214,397.028 256,326.421 	"/>
	<polygon style="fill:#D9D9DD;" points="404.231,218.973 421.033,218.949 318.749,292.953 315.537,283.155 	"/>
</g>
<g>
</g>
<g>
</g>
<g>
</g>
<g>
</g>
<g>
</g>
<g>
</g>
<g>
</g>
<g>
</g>
<g>
</g>
<g>
</g>
<g>
</g>
<g>
</g>
<g>
</g>
<g>
</g>
<g>
</g>
</svg>
