<?xml version="1.0" encoding="iso-8859-1"?>
<!-- Generator: Adobe Illustrator 19.0.0, SVG Export Plug-In . SVG Version: 6.00 Build 0)  -->
<svg version="1.1" id="Layer_1" xmlns="http://www.w3.org/2000/svg" xmlns:xlink="http://www.w3.org/1999/xlink" x="0px" y="0px"
	 viewBox="0 0 512 512" style="enable-background:new 0 0 512 512;" xml:space="preserve">
<circle style="fill:#FF8C8A;" cx="256" cy="256" r="256"/>
<path style="fill:#FA7876;" d="M477.4,384.6C448.2,434.7,402.5,474,347.8,495l-86.7-86.7l-74.5-206.2c2,0.6,4.1,0.9,6.2,0.9
	c12.4,0,22.4-10,22.4-22.4s-10-22.4-22.4-22.4c-7.7,0-14.5,3.9-18.6,9.8l-24-66.5l128.4,132l-7.4-55L477.4,384.6z"/>
<path style="fill:#FAD55C;" d="M369.6,330.9l-91.7-143.3c-1.4-2.2-7.7-11-9.7-12.4c-5.1-4.1-73.1-30.5-84.9-35.4
	c-10.6-2.6-18.4,1.2-22.3,14.2c-0.5,12.9-5.1,85.5-3.5,92c0.4,2.4,5.8,11.8,7.2,14l91.7,143.3c5.6,8.8,17.3,11.3,26.1,5.7l81.4-52.1
	C372.6,351.4,375.2,339.7,369.6,330.9z M203.7,196.3c-8.9,5.7-20.7,3.1-26.4-5.8c-5.7-8.9-3.1-20.7,5.8-26.4
	c8.9-5.7,20.7-3.1,26.4,5.8C215.2,178.8,212.6,190.6,203.7,196.3z"/>
<path style="fill:#E3C04D;" d="M256.4,403.3L164.7,260c-1.4-2.2-6.8-11.6-7.2-14c-1.6-6.4,2.9-79.1,3.5-92c1.1-3.9,2.6-6.9,4.4-9.2
	c-1.3,23.1-4.5,78.2-3.1,83.7c0.4,2.4,5.8,11.8,7.2,14l91.7,143.3c5.6,8.8,17.3,11.3,26.1,5.7l81.4-52.1c1.3-0.8,2.4-1.7,3.4-2.8
	c1.7,7.6-1.3,15.8-8.2,20.2l-81.4,52.1C273.8,414.7,262,412.1,256.4,403.3z"/>
<path style="fill:#F8F8F8;" d="M179.5,171.1l-39-61c-1.9-3-1-7.1,2-9.1l0,0c3-1.9,7.1-1,9.1,2l39,61c1.9,3.1,1.1,7.1-2,9.1l0,0
	C185.5,175,181.5,174.1,179.5,171.1z"/>
<path style="fill:#D9D9DD;" d="M142.5,101L142.5,101l46.1,72.1l0,0c3-2,3.9-6,2-9.1l-39-61C149.6,99.9,145.5,99,142.5,101z"/>
<g>
</g>
<g>
</g>
<g>
</g>
<g>
</g>
<g>
</g>
<g>
</g>
<g>
</g>
<g>
</g>
<g>
</g>
<g>
</g>
<g>
</g>
<g>
</g>
<g>
</g>
<g>
</g>
<g>
</g>
</svg>
